<?xml version="1.0" standalone="no"?><!DOCTYPE svg PUBLIC "-//W3C//DTD SVG 1.1//EN" "http://www.w3.org/Graphics/SVG/1.1/DTD/svg11.dtd"><svg t="1572334320810" class="icon" viewBox="0 0 1024 1024" version="1.1" xmlns="http://www.w3.org/2000/svg" p-id="6373" xmlns:xlink="http://www.w3.org/1999/xlink" width="200" height="200"><defs><style type="text/css"></style></defs><path d="M512 32C246.4 32 32 246.4 32 512s214.4 480 480 480 480-214.4 480-480S777.6 32 512 32z m0 896C281.6 928 96 742.4 96 512S281.6 96 512 96s416 185.6 416 416-185.6 416-416 416z" p-id="6374" fill="#0061b2"></path><path d="M512 416c-25.6 0-48 22.4-48 48v256c0 25.6 22.4 48 48 48s48-22.4 48-48v-256c0-25.6-22.4-48-48-48z" p-id="6375" fill="#0061b2"></path><path d="M512 304m-48 0a48 48 0 1 0 96 0 48 48 0 1 0-96 0Z" p-id="6376" fill="#0061b2"></path></svg>