<?xml version="1.0" encoding="UTF-8"?>
<svg width="12px" height="12px" viewBox="0 0 12 12" version="1.1" xmlns="http://www.w3.org/2000/svg" xmlns:xlink="http://www.w3.org/1999/xlink">
    <!-- Generator: Sketch 52.2 (67145) - http://www.bohemiancoding.com/sketch -->
    <title>验证码</title>
    <desc>Created with Sketch.</desc>
    <g id="页面-1" stroke="none" stroke-width="1" fill="none" fill-rule="evenodd">
        <g id="0-0----发票列表页" transform="translate(-20.000000, -450.000000)">
            <rect id="矩形" fill="#FFFFFF" x="0" y="0" width="375" height="667"></rect>
            <g id="3" transform="translate(0.000000, 353.000000)" fill-rule="nonzero">
                <g id="验证码" transform="translate(19.000000, 97.000000)">
                    <rect id="矩形" fill="#000000" opacity="0" x="0" y="0" width="12" height="12"></rect>
                    <path d="M2.6427,2.96166 L2.6427,1.66626 C2.64326024,1.47095059 2.80145059,1.31276024 2.99676,1.3122 L9.58254,1.3122 C9.77785921,1.31276008 9.93606682,1.47094089 9.93666,1.66626 L9.93666,2.96178 L10.59726,2.96178 L10.59726,1.35534 C10.59726,0.96588 10.27848,0.64716 9.8889,0.64716 L2.6904,0.64716 C2.30082,0.64716 1.98222,0.96588 1.98222,1.35534 L1.98222,2.96172 L2.6427,2.96172 L2.6427,2.96166 Z M9.93666,8.63604 L9.93666,10.04676 C9.93600116,10.2420421 9.77782226,10.4001673 9.58254,10.40076 L2.99676,10.40076 C2.80148755,10.4001672 2.64332593,10.2420323 2.6427,10.04676 L2.6427,8.63604 L1.98222,8.63604 L1.98222,10.35768 C1.98222,10.74714 2.30094,11.06592 2.6904,11.06592 L9.8889,11.06592 C10.27842,11.06592 10.59726,10.7472 10.59726,10.35768 L10.59726,8.63604 L9.93666,8.63604 Z M3.52116,7.58604 L2.8497,7.58604 L2.8497,5.0547 C2.6043,5.28384 2.31522,5.45346 1.98222,5.56374 L1.98222,4.9542 C2.15742,4.89696 2.34774,4.788 2.55336,4.62798 C2.75892,4.46784 2.89986,4.28106 2.9763,4.06764 L3.5211,4.06764 L3.5211,7.58604 L3.52116,7.58604 Z M7.2696,6.9621 L7.2696,7.58616 L4.9155,7.58616 C4.94118,7.35012 5.01762,7.12668 5.14506,6.91578 C5.27238,6.70398 5.52408,6.42444 5.90016,6.07518 C6.20304,5.79324 6.38826,5.60196 6.45714,5.50158 C6.54942,5.3631 6.59568,5.226 6.59568,5.09046 C6.59568,4.94094 6.55536,4.82568 6.47496,4.74522 C6.39426,4.66494 6.28374,4.62462 6.14172,4.62462 C6.00168,4.62462 5.8899,4.6668 5.80704,4.75104 C5.72418,4.83558 5.6763,4.9758 5.66364,5.17182 L4.9944,5.1051 C5.03436,4.73556 5.1594,4.47012 5.36952,4.30938 C5.57982,4.14828 5.84274,4.06794 6.15834,4.06794 C6.50406,4.06794 6.77556,4.16094 6.97344,4.34754 C7.17096,4.5339 7.26972,4.76574 7.26972,5.04294 C7.27028586,5.19710147 7.24142983,5.34995494 7.1847,5.4933 C7.12794,5.63592 7.0386,5.78544 6.91578,5.94162 C6.8346,6.04518 6.68802,6.19404 6.47616,6.38886 C6.26454,6.58284 6.13032,6.7125 6.07368,6.7758 C6.02173409,6.8332242 5.97568327,6.89571744 5.93622,6.96234 L7.2696,6.96234 L7.2696,6.9621 Z M8.26962,6.65628 L8.9196,6.57744 C8.94042,6.74316 8.9961,6.86988 9.08658,6.95724 C9.17772,7.04472 9.28758,7.08858 9.41658,7.08858 C9.55524,7.08858 9.67188,7.03584 9.7665,6.9312 C9.86148,6.82584 9.90894,6.684 9.90894,6.50568 C9.90894,6.33666 9.8634,6.20292 9.77274,6.10422 C9.6819,6.0051 9.57114,5.9556 9.44058,5.9556 C9.35442,5.9556 9.25182,5.97222 9.13212,6.00582 L9.20622,5.45856 C9.3879,5.4633 9.5262,5.42382 9.62196,5.34024 C9.71742,5.2566 9.76536,5.14566 9.76536,5.00682 C9.76536,4.8891 9.73032,4.79484 9.6606,4.72482 C9.59004,4.65474 9.4968,4.61976 9.3807,4.61976 C9.26604,4.61976 9.16782,4.65942 9.08658,4.73922 C9.00564,4.81866 8.95632,4.93512 8.93856,5.088 L8.31966,4.983 C8.36268,4.77132 8.42778,4.60164 8.51448,4.4748 C8.60148,4.34844 8.72232,4.24878 8.87778,4.17636 C9.03318,4.10388 9.20712,4.06764 9.3999,4.06764 C9.72972,4.06764 9.9939,4.17282 10.1934,4.38324 C10.3572,4.55514 10.43946,4.7496 10.43946,4.96614 C10.43946,5.2737 10.27134,5.51904 9.93522,5.70222 C10.13586,5.7453 10.29654,5.84184 10.41684,5.99166 C10.53714,6.14142 10.59732,6.3222 10.59732,6.53394 C10.59732,6.84168 10.48488,7.10376 10.26036,7.32024 C10.03572,7.53702 9.75618,7.64538 9.4215,7.64538 C9.1044,7.64538 8.84178,7.554 8.6328,7.37196 C8.42412,7.18944 8.30298,6.9507 8.26962,6.65628 Z" id="形状" fill="#DFAF42"></path>
                </g>
            </g>
        </g>
    </g>
</svg>