<?xml version="1.0" standalone="no"?><!DOCTYPE svg PUBLIC "-//W3C//DTD SVG 1.1//EN" "http://www.w3.org/Graphics/SVG/1.1/DTD/svg11.dtd"><svg t="1587090963150" class="icon" viewBox="0 0 1024 1024" version="1.1" xmlns="http://www.w3.org/2000/svg" p-id="3064" xmlns:xlink="http://www.w3.org/1999/xlink" width="16" height="16"><defs><style type="text/css"></style></defs><path d="M257.141498 320.148507l324.879252 0c15.954367 0 29.006637-13.053294 29.006637-29.006637l0-5.801123c0-15.954367-13.053294-29.007661-29.006637-29.007661l-324.879252 0c-15.954367 0-29.006637 13.053294-29.006637 29.007661l0 5.801123C228.134861 307.095213 241.188154 320.148507 257.141498 320.148507z" p-id="3065"></path><path d="M228.134861 419.062308c0 15.954367 13.053294 29.006637 29.006637 29.006637l324.879252 0c15.954367 0 29.006637-13.053294 29.006637-29.006637l0-5.801123c0-15.954367-13.053294-29.006637-29.006637-29.006637l-324.879252 0c-15.954367 0-29.006637 13.053294-29.006637 29.006637L228.134861 419.062308z" p-id="3066"></path><path d="M737.03015 62.758346 160.972205 62.758346c-52.782134 0-95.723132 42.940998-95.723132 95.723132l0 702.994985c0 52.782134 42.940998 95.723132 95.723132 95.723132l387.471822 0c-20.400632-11.391445-39.353286-25.668613-56.329936-42.645263-6.752798-6.751774-13.063527-13.826913-18.952654-21.170159l-312.190255 0c-17.593703 0-31.907711-14.314007-31.907711-31.908734L129.063471 158.482501c0-17.593703 14.314007-31.907711 31.907711-31.907711L737.03015 126.57479c17.593703 0 31.907711 14.314007 31.907711 31.907711l0 339.049996c22.852474 9.304923 44.325531 21.965268 63.815421 37.72623L832.753281 158.482501C832.753281 105.700367 789.812283 62.758346 737.03015 62.758346z" p-id="3067"></path><path d="M896.108215 680.623465 693.048449 883.684254c-12.409634 12.409634-32.715099 12.409634-45.124733 0l0 0c-12.409634-12.409634-12.409634-32.715099 0-45.124733l203.059765-203.059765c12.409634-12.409634 32.715099-12.409634 45.124733 0l0 0C908.517849 647.908366 908.517849 668.214854 896.108215 680.623465z" p-id="3068"></path><path d="M647.114281 883.634112l-90.248444-90.248444c-12.409634-12.409634-12.409634-32.715099 0-45.124733l0 0c12.409634-12.409634 32.715099-12.409634 45.124733 0l90.248444 90.248444c12.409634 12.409634 12.409634 32.715099 0 45.124733l0 0C679.82938 896.043746 659.523915 896.043746 647.114281 883.634112z" p-id="3069"></path></svg>