<?xml version="1.0" standalone="no"?><!DOCTYPE svg PUBLIC "-//W3C//DTD SVG 1.1//EN" "http://www.w3.org/Graphics/SVG/1.1/DTD/svg11.dtd"><svg t="1574671764833" class="icon" viewBox="0 0 1566 1024" version="1.1" xmlns="http://www.w3.org/2000/svg" p-id="21154" width="48.9375" height="32" xmlns:xlink="http://www.w3.org/1999/xlink"><defs><style type="text/css"></style></defs><path d="M735.09376 770.800941c8.161882 8.161882 20.419765 12.257882 28.581647 12.257883 8.161882 0 20.419765-4.096 28.611765-12.257883L963.777054 599.280941l171.52 171.52c8.161882 8.161882 20.419765 12.257882 28.611765 12.257883 8.131765 0 20.389647-4.096 28.551529-12.257883a39.454118 39.454118 0 0 0 0-57.163294L1020.940348 542.117647l171.52-171.52a39.454118 39.454118 0 0 0 0-57.163294 39.454118 39.454118 0 0 0-57.163294 0L963.777054 484.954353l-171.52-171.52a39.454118 39.454118 0 0 0-57.163294 0 39.454118 39.454118 0 0 0 0 57.163294L906.61376 542.117647l-171.52 171.52a49.061647 49.061647 0 0 0 0 57.163294z" fill="#d81e06" p-id="21155"></path><path d="M519.481525 1024h969.125647A77.944471 77.944471 0 0 0 1566.129995 946.115765V77.884235A77.944471 77.944471 0 0 0 1488.607172 0H519.481525C500.08576 0 480.689995 0 11.63776 490.586353a37.737412 37.737412 0 0 0 0 54.512941C484.605289 1024 500.08576 1024 519.481525 1024z m11.625411-946.115765h957.500236v868.23153H531.106936c-46.531765-35.026824-248.109176-237.477647-434.176-432.188236 186.066824-194.650353 391.529412-401.016471 434.176-436.043294z" fill="#d81e06" p-id="21156"></path></svg>