<?xml version="1.0" standalone="no"?><!DOCTYPE svg PUBLIC "-//W3C//DTD SVG 1.1//EN" "http://www.w3.org/Graphics/SVG/1.1/DTD/svg11.dtd"><svg t="1572333672492" class="icon" viewBox="0 0 1024 1024" version="1.1" xmlns="http://www.w3.org/2000/svg" p-id="2045" xmlns:xlink="http://www.w3.org/1999/xlink" width="200" height="200"><defs><style type="text/css"></style></defs><path d="M403.6 625c4.4 4.4 13.2 8.8 22.1 8.8s17.7-4.4 22.1-8.8l388.5-388.5c13.2-13.2 13.2-35.3 0-48.6-13.2-13.2-35.3-13.2-48.6 0L403.6 580.8c-8.8 13.3-8.8 30.9 0 44.2z m0 0" p-id="2046" fill="#ffffff"></path><path d="M866.1 512c-16.6 0-30 13.4-30 30v234.2c0 15.9-6.3 30.9-17.7 42.3s-26.4 17.7-42.3 17.7H247.9c-15.9 0-30.9-6.3-42.3-17.7s-17.7-26.4-17.7-42.3V248.1c0-15.9 6.3-30.9 17.7-42.3 11.4-11.4 26.4-17.7 42.3-17.7H482c16.6 0 30-13.4 30-30s-13.4-30-30-30H247.9c-66 0-120 54-120 120v528.1c0 66 54 120 120 120H776c66 0 120-54 120-120V542c0.1-16.6-13.4-30-29.9-30z" p-id="2047" fill="#ffffff"></path></svg>