<?xml version="1.0" standalone="no"?><!DOCTYPE svg PUBLIC "-//W3C//DTD SVG 1.1//EN" "http://www.w3.org/Graphics/SVG/1.1/DTD/svg11.dtd"><svg t="1588145675287" class="icon" viewBox="0 0 1024 1024" version="1.1" xmlns="http://www.w3.org/2000/svg" p-id="3555" width="18" height="18" xmlns:xlink="http://www.w3.org/1999/xlink"><defs><style type="text/css"></style></defs><path d="M512 609.745455c-23.272727 0-37.236364 18.618182-37.236364 37.236363v116.363637h74.472728v-116.363637c0-23.272727-13.963636-37.236364-37.236364-37.236363z" fill="#65A548" p-id="3556"></path><path d="M279.272727 446.836364v316.509091h148.945455v-116.363637c0-46.545455 37.236364-83.781818 83.781818-83.781818s83.781818 37.236364 83.781818 83.781818v116.363637H744.727273V446.836364l-232.727273-232.727273-232.727273 232.727273z" fill="#65A548" p-id="3557"></path><path d="M512 0C228.072727 0 0 228.072727 0 512s228.072727 512 512 512 512-228.072727 512-512S795.927273 0 512 0z m349.090909 563.2L791.272727 493.381818v269.963637c0 27.927273-23.272727 46.545455-46.545454 46.545454H279.272727c-27.927273 0-46.545455-23.272727-46.545454-46.545454v-269.963637l-69.818182 69.818182c-9.309091-9.309091-13.963636-18.618182-13.963636-32.581818 0-13.963636 4.654545-23.272727 13.963636-32.581818l316.509091-316.509091c9.309091-9.309091 18.618182-13.963636 32.581818-13.963637 13.963636 0 23.272727 4.654545 32.581818 13.963637l316.509091 316.509091c9.309091 9.309091 13.963636 18.618182 13.963636 32.581818 0 9.309091-4.654545 23.272727-13.963636 32.581818z" fill="#65A548" p-id="3558"></path></svg>