<?xml version="1.0" standalone="no"?><!DOCTYPE svg PUBLIC "-//W3C//DTD SVG 1.1//EN" "http://www.w3.org/Graphics/SVG/1.1/DTD/svg11.dtd"><svg t="1614564809570" class="icon" viewBox="0 0 1024 1024" version="1.1" xmlns="http://www.w3.org/2000/svg" p-id="800" width="16" height="16" xmlns:xlink="http://www.w3.org/1999/xlink"><defs><style type="text/css"></style></defs><path d="M802.944 200.04H602.6c-5.048-78.488-70.128-139.592-148.776-139.68H221.016c-82.296 0.12-148.968 66.824-149.04 149.12v605.032c0.072 82.312 66.768 149.032 149.08 149.128h581.888c82.312-0.096 149.008-66.816 149.08-149.128V349.12c-0.096-82.296-66.784-148.984-149.08-149.08z m-581.888-74.192h232.808c42.904 0 78.328 32.504 83.072 74.192H138.032a83.68 83.68 0 0 1 83.024-74.192z m581.888 772.304H221.056c-46.152-0.072-83.544-37.48-83.592-83.64V265.488h665.48c46.08 0 83.592 37.512 83.592 83.64v465.392c0 46.12-37.552 83.632-83.592 83.632z" fill="#248CCD" p-id="801"></path><path d="M674.832 642.112H544.72v-50.872h130.112a32.744 32.744 0 0 0 0-65.488H580.576l107.832-128.416a32.624 32.624 0 0 0-3.936-45.984l-0.112-0.096a33.632 33.632 0 0 0-46.168 4.048L515.352 501.688 392.464 355.304a33.64 33.64 0 0 0-46.128-4 32.72 32.72 0 0 0-4.048 46.08L450.08 525.792H349.12c-18.056 0-32.72 14.712-32.72 32.768s14.624 32.68 32.68 32.68h130.152v50.872H349.08a32.768 32.768 0 0 0 0 65.488h130.152v116.36h65.488V707.6h130.112a32.744 32.744 0 0 0 0-65.488z" fill="#248CCD" p-id="802"></path></svg>