<?xml version="1.0" standalone="no"?><!DOCTYPE svg PUBLIC "-//W3C//DTD SVG 1.1//EN" "http://www.w3.org/Graphics/SVG/1.1/DTD/svg11.dtd"><svg t="1587881708083" class="icon" viewBox="0 0 1024 1024" version="1.1" xmlns="http://www.w3.org/2000/svg" p-id="3854" xmlns:xlink="http://www.w3.org/1999/xlink" width="16" height="16"><defs><style type="text/css"></style></defs><path d="M743.0656 403.9552A26.1248 26.1248 0 0 0 716.928 430.08v348.6208H274.3936V245.0432h331.2512a26.0864 26.0864 0 0 0 26.0992-26.112 26.0864 26.0864 0 0 0-26.0992-26.1248H248.96a26.88 26.88 0 0 0-26.8928 26.9184v584.4736c0 14.8736 12.0192 26.9824 26.8928 26.9824h493.2992a27.008 27.008 0 0 0 26.9824-26.9824V430.1568a26.112 26.112 0 0 0-26.176-26.2016z m48.9344-197.3376c-6.464-6.4512-14.336-9.9968-20.9792-9.9968-3.8272 0-7.2576 1.1392-9.7536 3.6352L465.152 496.4608c-6.72 6.72-3.8656 20.4416 6.2848 30.6432 6.5024 6.4512 14.336 10.0096 21.0176 10.0096 3.776 0 7.2064-1.152 9.6128-3.648l296.2048-296.2176c6.7328-6.72 3.9296-20.4544-6.272-30.6304z" p-id="3855" fill="#2F54EB"></path></svg>