<?xml version="1.0" standalone="no"?><!DOCTYPE svg PUBLIC "-//W3C//DTD SVG 1.1//EN" "http://www.w3.org/Graphics/SVG/1.1/DTD/svg11.dtd"><svg t="1586920138135" class="icon" viewBox="0 0 1024 1024" version="1.1" xmlns="http://www.w3.org/2000/svg" p-id="1362" width="16" height="16" xmlns:xlink="http://www.w3.org/1999/xlink"><defs><style type="text/css"></style></defs><path d="M811.446857 73.142857q13.165714 0 25.161143 5.12 18.870857 7.460571 29.988571 23.405714t11.117714 35.401143l0 736.548571q0 19.456-11.117714 35.401143t-29.988571 23.405714q-10.825143 4.534857-25.161143 4.534857-27.428571 0-47.396571-18.285714l-251.977143-242.322286-251.977143 242.322286q-20.553143 18.870857-47.396571 18.870857-13.165714 0-25.161143-5.12-18.870857-7.460571-29.988571-23.405714t-11.117714-35.401143l0-736.548571q0-19.456 11.117714-35.401143t29.988571-23.405714q11.995429-5.12 25.161143-5.12l598.820571 0z" p-id="1363"></path></svg>