<?xml version="1.0" standalone="no"?><!DOCTYPE svg PUBLIC "-//W3C//DTD SVG 1.1//EN" "http://www.w3.org/Graphics/SVG/1.1/DTD/svg11.dtd"><svg t="1582805921350" class="icon" viewBox="0 0 1024 1024" version="1.1" xmlns="http://www.w3.org/2000/svg" p-id="1798" width="16" height="16" xmlns:xlink="http://www.w3.org/1999/xlink"><defs><style type="text/css"></style></defs><path d="M513.8 69.5c-244.4 0-443.2 198.8-443.2 443.2s198.8 443.2 443.2 443.2S957 757 957 512.6 758.2 69.5 513.8 69.5z m0 823.6c-209.8 0-380.5-170.7-380.5-380.5S304 132.2 513.8 132.2s380.5 170.7 380.5 380.5-170.7 380.4-380.5 380.4z" p-id="1799"></path><path d="M482.5 291.3h62.7v341.2h-62.7z" p-id="1800"></path><path d="M509.549684 783.821504a43.498695 43.498695 0 1 0 8.572567-86.573997 43.498695 43.498695 0 1 0-8.572567 86.573997Z" p-id="1801"></path></svg>