<?xml version="1.0" standalone="no"?><!DOCTYPE svg PUBLIC "-//W3C//DTD SVG 1.1//EN" "http://www.w3.org/Graphics/SVG/1.1/DTD/svg11.dtd"><svg t="1587020300966" class="icon" viewBox="0 0 1024 1024" version="1.1" xmlns="http://www.w3.org/2000/svg" p-id="2599" xmlns:xlink="http://www.w3.org/1999/xlink" width="16" height="16"><defs><style type="text/css"></style></defs><path d="M512 1024C229.2224 1024 0 794.7776 0 512S229.2224 0 512 0s512 229.2224 512 512-229.2224 512-512 512z m-66.2016-367.9744L273.2032 500.5824a40.8064 40.8064 0 0 0-57.7536 3.2256 40.7552 40.7552 0 0 0 2.8672 57.7024l203.4688 183.2448a40.8064 40.8064 0 0 0 60.7744-7.0144l325.7856-361.8304a41.0112 41.0112 0 0 0-60.928-54.8864l-301.568 335.0016z" p-id="2600" fill="#2F54EB"></path></svg>