<?xml version="1.0" encoding="UTF-8"?>
<svg width="16px" height="16px" viewBox="0 0 16 16" version="1.1" xmlns="http://www.w3.org/2000/svg" xmlns:xlink="http://www.w3.org/1999/xlink">
    <title>微信</title>
    <g id="图标" stroke="none" stroke-width="1" fill="none" fill-rule="evenodd">
        <g id="微信" fill-rule="nonzero">
            <rect id="矩形" fill="#000000" opacity="0" x="0" y="0" width="16" height="16"></rect>
            <path d="M16,9.938 C16,7.721 13.7833333,5.91566667 11.2896667,5.91566667 C8.64766667,5.91566667 6.573,7.721 6.573,9.938 C6.573,12.1606667 8.64766667,13.9596667 11.2896667,13.9596667 C11.8423333,13.9596667 12.4013333,13.8186667 12.9536667,13.684 L14.4763333,14.5186667 L14.0596667,13.1313333 C15.1706667,12.2963333 16,11.185 16,9.938 Z M9.75966667,9.244 C9.484,9.244 9.20766667,8.968 9.20766667,8.691 C9.20766667,8.41566667 9.484,8.139 9.75966667,8.139 C10.1776667,8.139 10.4543333,8.41566667 10.4543333,8.691 C10.4543333,8.968 10.1776667,9.244 9.75966667,9.244 Z M12.8126667,9.244 C12.5366667,9.244 12.261,8.968 12.261,8.691 C12.261,8.41566667 12.5366667,8.139 12.8126667,8.139 C13.23,8.139 13.5066667,8.41566667 13.5066667,8.691 C13.5066667,8.968 13.2233333,9.244 12.8126667,9.244 Z M10.832,5.42566667 C11.0136667,5.42566667 11.196,5.43833334 11.3773333,5.457 C10.8886667,3.17366667 8.44933333,1.481 5.66366666,1.481 C2.55266667,1.481 0,3.60066667 0,6.29733333 C0,7.853 0.847,9.132 2.26433333,10.1233333 L1.7,11.8286667 L3.68166667,10.832 C4.39033334,10.9696667 4.961,11.1143333 5.66366667,11.1143333 C5.839,11.1143333 6.01533334,11.108 6.191,11.09 C6.078,10.713 6.01533333,10.3126667 6.01533333,9.90433333 C6.015,7.43266667 8.14166667,5.42566667 10.832,5.42566667 Z M7.78333333,3.889 C8.20966666,3.889 8.49166666,4.17133333 8.49166666,4.598 C8.49166666,5.024 8.20933333,5.30633333 7.78333333,5.30633333 C7.35666666,5.30633333 6.93066666,5.024 6.93066666,4.598 C6.937,4.171 7.36266667,3.889 7.78333333,3.889 Z M3.81966667,5.30566667 C3.393,5.30566667 2.967,5.02366667 2.967,4.59733334 C2.967,4.17066667 3.39333333,3.88866667 3.81966667,3.88866667 C4.24666667,3.88866667 4.529,4.171 4.529,4.59733334 C4.52866667,5.01766667 4.24666667,5.30566667 3.81966667,5.30566667 Z" id="形状" fill="#0FBB08"></path>
        </g>
    </g>
</svg>